<svg xmlns="http://www.w3.org/2000/svg" width="36" height="28" viewBox="0 0 36 28">
    <g fill="#FFF" fill-rule="evenodd">
        <path d="M34.183 28H9.818C8.814 28 8 27.105 8 26s.814-2 1.818-2h24.364c1.004 0 1.818.895 1.818 2s-.813 2-1.817 2zM34.183 16H9.818C8.814 16 8 15.105 8 14s.814-2 1.818-2h24.364c1.004 0 1.818.895 1.818 2s-.813 2-1.817 2zM34.183 5H9.818C8.814 5 8 4.105 8 3s.814-2 1.818-2h24.364C35.186 1 36 1.895 36 3s-.813 2-1.817 2z"/>
        <circle cx="2.5" cy="2.5" r="2.5"/>
        <circle cx="2.5" cy="14.5" r="2.5"/>
        <circle cx="2.5" cy="25.5" r="2.5"/>
    </g>
</svg>
