<svg xmlns="http://www.w3.org/2000/svg" width="35" height="38" viewBox="0 0 35 38">
    <path fill="#FFF" fill-rule="nonzero" d="M9.975 25.02h20.752c2.353 0 4.273-1.937 4.273-4.31V11.9v-.032-.062c0-.016 0-.031-.008-.047 0-.016-.007-.039-.007-.055 0-.015-.008-.03-.008-.046-.008-.016-.008-.032-.016-.055-.007-.016-.007-.031-.015-.047s-.008-.031-.016-.047c-.007-.015-.015-.031-.023-.054a.171.171 0 0 0-.023-.04l-.023-.046c-.008-.016-.016-.024-.024-.04-.007-.015-.023-.03-.03-.046-.008-.016-.016-.024-.031-.04-.008-.015-.024-.023-.031-.038-.008-.016-.024-.024-.031-.04-.008-.015-.024-.023-.031-.03l-.04-.04c-.015-.008-.022-.023-.038-.031-.015-.008-.03-.023-.046-.031s-.023-.016-.039-.024a.162.162 0 0 1-.046-.03l-.047-.024-.046-.024-.047-.023c-.015-.008-.03-.008-.046-.016a.143.143 0 0 0-.054-.015c-.016 0-.031-.008-.039-.008-.023-.008-.039-.008-.062-.008-.008 0-.015-.008-.03-.008L7.8 7.19V3.49c0-.04 0-.079-.008-.11 0-.008 0-.015-.008-.031 0-.023-.007-.047-.007-.07-.008-.024-.008-.04-.016-.063 0-.015-.007-.023-.007-.039l-.024-.07c0-.008-.007-.024-.007-.031a.235.235 0 0 0-.031-.063c-.008-.008-.008-.023-.016-.031-.008-.016-.015-.031-.03-.047-.009-.016-.016-.023-.024-.039s-.016-.023-.023-.04c-.008-.015-.023-.03-.031-.046l-.023-.023-.047-.047-.023-.024c-.016-.015-.031-.03-.054-.046-.008-.008-.024-.016-.031-.024-.016-.016-.031-.023-.047-.039-.023-.016-.046-.031-.062-.039-.007-.008-.015-.008-.023-.016-.03-.015-.07-.03-.1-.046L1.453.083a1.04 1.04 0 0 0-1.37.563A1.056 1.056 0 0 0 .64 2.028l5.062 2.156v23.101c0 2.187 1.626 3.999 3.723 4.272-.379.64-.603 1.39-.603 2.187 0 2.35 1.896 4.256 4.218 4.256s4.219-1.913 4.219-4.256c0-.781-.21-1.523-.58-2.148h9.396a4.225 4.225 0 0 0-.58 2.148c0 2.35 1.896 4.256 4.218 4.256s4.219-1.913 4.219-4.256-1.897-4.257-4.219-4.257H9.975c-1.207 0-2.183-.992-2.183-2.202v-2.858a4.292 4.292 0 0 0 2.183.593zm5.202 8.716c0 1.187-.96 2.148-2.129 2.148s-2.129-.969-2.129-2.148c0-1.18.96-2.148 2.129-2.148s2.129.96 2.129 2.148zm16.673 0c0 1.187-.96 2.148-2.129 2.148s-2.129-.969-2.129-2.148c0-1.18.96-2.148 2.129-2.148s2.129.96 2.129 2.148zM30.727 22.91H9.975c-1.207 0-2.183-.991-2.183-2.202V9.315l25.118 3.49v7.896c0 1.226-.983 2.21-2.183 2.21z"/>
</svg>
