<svg xmlns="http://www.w3.org/2000/svg" width="35" height="36" viewBox="0 0 35 36">
    <g fill="#FFF" fill-rule="evenodd">
        <path d="M30.115 4.613C26.965 1.638 22.776 0 18.322 0 17.592 0 17 .559 17 1.248c0 .69.592 1.248 1.322 1.248 3.748 0 7.273 1.379 9.924 3.882 2.651 2.504 4.111 5.833 4.11 9.374 0 .69.592 1.248 1.322 1.248.73 0 1.322-.559 1.322-1.248 0-4.208-1.735-8.164-4.885-11.139z"/>
        <path d="M25.183 15.72c0 .707.63 1.28 1.409 1.28.778 0 1.408-.573 1.408-1.28C28 10.912 23.697 7 18.409 7 17.63 7 17 7.573 17 8.28c0 .707.63 1.28 1.408 1.28 3.736.001 6.775 2.764 6.775 6.16zM21.784 22.863c-1.907-.098-2.88 1.32-3.345 2.002a1.251 1.251 0 1 0 2.066 1.413c.55-.805.8-.932 1.138-.916 1.083.128 5.35 3.254 5.776 4.231.108.288.104.57-.011.913-.448 1.33-1.19 2.264-2.145 2.702-.907.416-2.02.378-3.216-.109-4.468-1.821-8.372-4.363-11.602-7.554l-.004-.004c-3.185-3.227-5.722-7.126-7.54-11.587-.487-1.198-.525-2.31-.109-3.218.438-.955 1.372-1.696 2.7-2.144.345-.115.626-.119.911-.013.981.429 4.107 4.695 4.233 5.766.018.35-.11.6-.914 1.15a1.251 1.251 0 1 0 1.412 2.066c.682-.465 2.1-1.434 2.002-3.349-.109-1.999-3.998-7.294-5.856-7.977-.827-.308-1.696-.313-2.585-.015-2 .674-3.445 1.875-4.178 3.473-.71 1.551-.688 3.35.066 5.205 1.946 4.774 4.668 8.951 8.091 12.416a.903.903 0 0 0 .026.025c3.462 3.417 7.635 6.135 12.403 8.078.955.389 1.895.583 2.794.583.847 0 1.657-.172 2.41-.517 1.598-.733 2.799-2.177 3.473-4.179.298-.887.293-1.756-.013-2.579-.685-1.863-5.98-5.753-7.983-5.862z"/>
    </g>
</svg>
