<svg xmlns="http://www.w3.org/2000/svg" width="38" height="38" viewBox="0 0 38 38">
    <path fill="#FFF" fill-rule="evenodd" d="M27.115 23.849L38 34.734 34.734 38 23.948 27.115v-1.683l-.693-.593c-2.639 2.243-5.706 3.364-9.203 3.364-3.892 0-7.207-1.369-9.945-4.107C1.369 21.358 0 18.043 0 14.151c0-3.892 1.369-7.224 4.107-9.995C6.845 1.386 10.127 0 13.953 0c3.893 0 7.208 1.385 9.945 4.156 2.738 2.771 4.107 6.103 4.107 9.995 0 3.497-1.121 6.564-3.364 9.203l.692.495h1.782zM7.7 21.299C9.565 23.1 11.816 24 14.45 24c2.637 0 4.887-.916 6.752-2.749C23.068 19.42 24 17.184 24 14.548s-.932-4.886-2.797-6.751C19.338 5.932 17.088 5 14.452 5s-4.87.932-6.703 2.797C5.916 9.662 5 11.912 5 14.548s.9 4.887 2.7 6.751z"/>
</svg>
