<svg xmlns="http://www.w3.org/2000/svg" width="30" height="27" viewBox="0 0 30 27">
    <path fill="#371005" fill-rule="nonzero" d="M26.001 24.025V17.83a6.44 6.44 0 0 0-4.278-6.065v-3.01a1.985 1.985 0 1 0-3.968 0s.204 2.63-2.439 2.63c-2.644 0-2.923-2.63-2.923-2.63a1.984 1.984 0 1 0-3.967 0v3.119a6.444 6.444 0 0 0-3.977 5.955v6.248A1.563 1.563 0 0 0 5.219 27h20.105A1.562 1.562 0 1 0 26 24.025zM15.225 21.31c-1.933 0-3.5-1.57-3.5-3.505a3.503 3.503 0 0 1 3.5-3.505 3.504 3.504 0 0 1 3.501 3.505 3.504 3.504 0 0 1-3.501 3.505zm1.838-3.527a1.879 1.879 0 1 1-3.756 0 1.88 1.88 0 1 1 3.756 0zm12.88-9.753l.003.001c-.008.036-.016.07-.022.106l-.038.18-.016.073a4.044 4.044 0 0 1-.146.488l-.011-.01c-.532 1.337-1.706 2.175-2.896 1.74l-2.632-1.097c-1.42-.52-2.318-2.452-2.008-4.318l.025-.151c-3.22-.897-9.642-1.246-14.428.11l.058.355c.31 1.865-.59 3.797-2.009 4.316l-2.63.825C1.808 11.154.445 10.261.09 8.479-.24 7.431-.43.287 13.977.01c15.188-.292 16.351 5.744 15.966 8.02z"/>
</svg>
