<svg xmlns="http://www.w3.org/2000/svg" width="24" height="17" viewBox="0 0 24 17">
    <path fill="#CC8C65" fill-rule="evenodd" d="M9.522 11.536l6.482-3.348-6.482-3.389v6.737zM12-.01c1.5 0 2.949.02 4.346.06 1.397.04 2.422.083 3.074.128l.977.053.228.02c.143.014.246.027.308.04.063.014.167.034.315.06.147.027.274.063.381.108.108.044.233.102.375.174.143.071.282.158.416.261a3.176 3.176 0 0 1 .596.603c.084.111.214.373.388.783a5.1 5.1 0 0 1 .355 1.353c.071.571.127 1.18.167 1.828.04.647.065 1.154.074 1.52V9.34a28.355 28.355 0 0 1-.241 3.884 5.344 5.344 0 0 1-.335 1.333c-.16.397-.303.672-.428.823l-.188.228a3.176 3.176 0 0 1-.388.355 2.257 2.257 0 0 1-.416.255 9.6 9.6 0 0 1-.375.167c-.107.045-.234.08-.381.107l-.322.06a8.186 8.186 0 0 1-.529.06c-2.24.17-5.04.255-8.397.255a247.006 247.006 0 0 1-4.815-.087c-1.361-.04-2.256-.074-2.685-.1l-.656-.054-.482-.054a6.358 6.358 0 0 1-.73-.134 4.115 4.115 0 0 1-.683-.28 2.56 2.56 0 0 1-.964-.797c-.085-.112-.215-.373-.389-.784a5.1 5.1 0 0 1-.355-1.353 29.511 29.511 0 0 1-.167-1.828A43.018 43.018 0 0 1 0 9.875V7.518c-.009-1.295.071-2.59.241-3.884.063-.491.174-.935.335-1.333.16-.397.303-.672.428-.823l.188-.228c.125-.134.254-.252.388-.355.134-.103.273-.19.416-.261A6.12 6.12 0 0 1 2.37.46c.107-.045.234-.08.381-.107.148-.027.252-.047.315-.06.062-.014.165-.027.308-.04a8.93 8.93 0 0 1 .228-.02C5.843.07 8.643-.01 12-.01z"/>
</svg>
