<svg xmlns="http://www.w3.org/2000/svg" width="17" height="20" viewBox="0 0 17 20">
    <g fill="#000" fill-rule="evenodd">
        <path d="M11.5 7a.49.49 0 0 0-.5.478v9.044a.49.49 0 0 0 .5.478.49.49 0 0 0 .5-.478V7.478A.49.49 0 0 0 11.5 7zM5.5 7a.49.49 0 0 0-.5.478v9.044a.49.49 0 0 0 .5.478.49.49 0 0 0 .5-.478V7.478A.49.49 0 0 0 5.5 7z"/>
        <path fill-rule="nonzero" d="M1.392 5.954v11.54c0 .682.262 1.323.72 1.782.454.461 1.088.723 1.75.724h9.275a2.468 2.468 0 0 0 1.752-.724c.457-.46.719-1.1.719-1.782V5.954c.909-.23 1.498-1.07 1.376-1.96-.122-.892-.916-1.558-1.857-1.558h-2.51V1.85a1.8 1.8 0 0 0-.565-1.313A1.973 1.973 0 0 0 10.676 0H6.324a1.973 1.973 0 0 0-1.376.537 1.8 1.8 0 0 0-.566 1.313v.586h-2.51c-.94 0-1.734.666-1.856 1.557-.122.892.467 1.73 1.376 1.961zm11.745 13.11H3.863c-.838 0-1.49-.689-1.49-1.57V5.995h12.254v11.5c0 .88-.652 1.568-1.49 1.568zM5.363 1.85a.881.881 0 0 1 .278-.65.968.968 0 0 1 .683-.263h4.352a.968.968 0 0 1 .683.262.881.881 0 0 1 .278.651v.586H5.363V1.85zm-3.49 1.522h13.254c.488 0 .883.378.883.844 0 .465-.395.843-.883.843H1.873c-.488 0-.883-.378-.883-.843 0-.466.395-.844.883-.844z"/>
        <path d="M8.5 7a.49.49 0 0 0-.5.478v9.044a.49.49 0 0 0 .5.478.49.49 0 0 0 .5-.478V7.478A.49.49 0 0 0 8.5 7z"/>
    </g>
</svg>
