<svg xmlns="http://www.w3.org/2000/svg" width="19" height="19" viewBox="0 0 19 19">
    <g fill="#CC8C65" fill-rule="evenodd">
        <path fill-rule="nonzero" d="M13.857 0H5.143A5.149 5.149 0 0 0 0 5.143v8.714A5.149 5.149 0 0 0 5.143 19h8.714A5.149 5.149 0 0 0 19 13.857V5.143A5.149 5.149 0 0 0 13.857 0zM9.5 14.695A5.201 5.201 0 0 1 4.305 9.5 5.201 5.201 0 0 1 9.5 4.305 5.201 5.201 0 0 1 14.695 9.5 5.201 5.201 0 0 1 9.5 14.695zm5.32-9.165a1.537 1.537 0 0 1-1.536-1.535c0-.847.689-1.535 1.535-1.535.847 0 1.536.688 1.536 1.535 0 .846-.689 1.535-1.536 1.535z"/>
        <path d="M9.5 6C7.57 6 6 7.57 6 9.5S7.57 13 9.5 13 13 11.43 13 9.5 11.43 6 9.5 6z"/>
    </g>
</svg>
