<svg xmlns="http://www.w3.org/2000/svg" width="29" height="22" viewBox="0 0 29 22">
    <g fill="#371005" fill-rule="evenodd">
        <path d="M26.283 22c.623 0 1.163-.219 1.622-.65l-7.85-8.348-.543.416c-.587.46-1.064.82-1.43 1.076-.366.258-.853.521-1.461.79-.609.268-1.175.402-1.701.402h-.031c-.526 0-1.092-.134-1.7-.402-.609-.269-1.096-.532-1.462-.79a36.502 36.502 0 0 1-1.43-1.076A68.321 68.321 0 0 0 9.755 13l-7.85 8.35c.458.431.998.65 1.62.65h22.758zM2.485 8.352A8.278 8.278 0 0 1 .905 7v12l7-6.952c-1.4-.97-3.205-2.201-5.42-3.696zM27.34 8.352a461.126 461.126 0 0 0-5.435 3.699l7 6.949V7c-.45.497-.97.948-1.565 1.352z"/>
        <path d="M26.404 0h-23c-.802 0-1.419.271-1.851.812-.433.542-.648 1.22-.648 2.032 0 .656.286 1.367.859 2.133.573.765 1.182 1.367 1.828 1.804.354.25 1.422.992 3.203 2.227a1035.426 1035.426 0 0 1 4.094 2.851l.233.166.431.31c.339.246.62.444.844.595.224.151.495.32.812.508.318.187.618.328.899.421.281.094.542.141.781.141h.031c.24 0 .5-.047.782-.14a4.73 4.73 0 0 0 .898-.422c.318-.188.588-.357.813-.508.224-.151.505-.35.844-.594a104.798 104.798 0 0 1 .664-.477l1.58-1.099 5.732-3.979a7.432 7.432 0 0 0 1.906-1.922c.51-.75.766-1.536.766-2.359 0-.687-.248-1.276-.743-1.766S27.082 0 26.404 0z"/>
    </g>
</svg>
